<svg xmlns="http://www.w3.org/2000/svg" version="1.1" xmlns:xlink="http://www.w3.org/1999/xlink" xmlns:svgjs="http://svgjs.dev/svgjs" width="100%" height="100%" viewBox="0 0 1000 600"><rect width="1000" height="600" x="0" y="0" fill="#18243c"/><g><rect width="333.3333333333333" height="333.3333333333333" y="263.2373685537762" fill="#ffffff" transform="matrix(0.5186396365976954,0,0,0.5186396365976954,0,77.0347406301612)" x="241.01518249511716"/><path d="M481.58593496434 377.8857908964623L481.58593496434 377.8857908964623Q481.58593496434 393.3588805593947 453.78645690232537 426.77901812028665L453.78645690232537 426.77901812028665Q463.79079678256636 433.658358124704 463.79079678256636 438.8232884750237L463.79079678256636 438.8232884750237Q463.79079678256636 442.2521077832191 460.4921858025303 443.03335775217505L460.4921858025303 443.03335775217505Q445.1927072438103 446.7876978807687 429.71961758087787 452.73387820004433L429.71961758087787 452.73387820004433Q406.75954904878455 475.2165161955534 384.40711938143477 490.0602656057158Q362.054689714085 504.9040150158782 348.3177110932768 504.9040150158782L348.3177110932768 504.9040150158782Q342.52344049018706 504.9040150158782 338.1614614968499 498.892730532523Q333.7777811154861 492.8814460491677 333.7777811154861 486.7833560137063L333.7777811154861 486.7833560137063Q333.7777811154861 475.54203701595173 341.6770863571515 465.0602665991265Q349.5546902107903 454.6001975703279 361.7508702817132 447.09151731314046Q373.94705035263615 439.6045384439796 388.3133692262143 433.81026784088994L388.3133692262143 433.81026784088994Q416.74218754099905 422.4170391269495 438.7907977759771 422.4170391269495L438.7907977759771 422.4170391269495Q440.6571171462607 422.4170391269495 444.0859364544561 422.72085855932124L444.0859364544561 422.72085855932124Q466.74218555417764 398.1982900893161 466.74218555417764 390.06026957935865L466.74218555417764 390.06026957935865Q466.74218555417764 386.3276308387915 461.4470468756986 386.3276308387915L461.4470468756986 386.3276308387915Q454.0902763346971 386.3276308387915 440.5703115941545 391.08023481660666Q427.07204824163836 395.8545401824484 416.4383681086273 402.01773438198944Q405.8046879756162 408.2026299695571 405.8046879756162 411.63144927775255L405.8046879756162 411.63144927775255Q405.8046879756162 412.7165186790802 409.2552086718382 412.7165186790802L409.2552086718382 412.7165186790802L421.42968735473454 411.1540187411684Q425.6614580199124 411.1540187411684 425.6614580199124 413.9751991846203L425.6614580199124 413.9751991846203Q425.6614580199124 417.1001990604439 419.17274299997297 419.14012953493994Q412.6840279800336 421.1583586214094 406.91145876497046 421.1583586214094L406.91145876497046 421.1583586214094Q394.56336897786167 421.1583586214094 385.4270846186828 415.29898385424Q376.2908002595039 409.43960908707066 376.2908002595039 399.13144977445785L376.2908002595039 399.13144977445785Q376.2908002595039 390.5377001159428 389.33333446346234 379.9908255350379Q402.37586866742083 369.4439509541331 421.12586792236283 362.17398596523776Q439.87586717730477 354.90402097634245 453.6345471861395 354.90402097634245L453.6345471861395 354.90402097634245Q481.58593496434 354.90402097634245 481.58593496434 377.8857908964623ZM358.4739606897037 494.59585570326544L358.4739606897037 494.59585570326544Q358.4739606897037 495.0732862398496 359.1033009424737 495.0732862398496L359.1033009424737 495.0732862398496Q362.684029966855 495.0732862398496 374.3376753371141 486.5446407454142Q385.9696193193466 478.03769663900533 401.11718816188073 464.6045374505689L401.11718816188073 464.6045374505689Q382.3671889069388 473.5021065414557 370.4314254923345 481.7052312154928Q358.4739606897037 489.9083558895299 358.4739606897037 494.59585570326544Z " fill="#18243c" transform="matrix(0.5186396365976954,0,0,0.5186396365976954,0,77.0347406301612)"/><path d="M804.4284754842948 378.7980159880847L804.4284754842948 378.7980159880847Q804.4284754842948 394.15998033463893 776.8286489374001 427.34009968063265L776.8286489374001 427.34009968063265Q786.7611392091553 434.170033338217 786.7611392091553 439.29786996441607L786.7611392091553 439.29786996441607Q786.7611392091553 442.70206402718685 783.4862183386416 443.4777031807296L783.4862183386416 443.4777031807296Q768.2966182484303 447.20508022414316 752.934653901876 453.10855600388487L752.934653901876 453.10855600388487Q730.1394810005376 475.42972720028064 707.9475829963989 490.1668711175921Q685.7556849922602 504.9040150349036 672.1173632091342 504.9040150349036L672.1173632091342 504.9040150349036Q666.3647061536925 504.9040150349036 662.034054213079 498.9359026590333Q657.6818567404226 492.967790283163 657.6818567404226 486.9134957791213L657.6818567404226 486.9134957791213Q657.6818567404226 475.75291018092344 665.5244304040212 465.3464182042254Q673.3454585355769 454.96147175957026 685.4540475436603 447.5067176727431Q697.5626365517437 440.0735091179588 711.8257787641124 434.320852062517L711.8257787641124 434.320852062517Q740.0504257402499 423.0094477400192 761.9406862957886 423.0094477400192L761.9406862957886 423.0094477400192Q763.793602051474 423.0094477400192 767.1977961142447 423.31108518861913L767.1977961142447 423.31108518861913Q789.6913315669833 398.9646339801952 789.6913315669833 390.8850594641253L789.6913315669833 390.8850594641253Q789.6913315669833 387.17922795275456 784.4342217485272 387.17922795275456L784.4342217485272 387.17922795275456Q777.130286386 387.17922795275456 763.7074199233025 391.8976994701394Q750.3060989926479 396.63771651956705 739.7487882916499 402.7566476197373Q729.191477590652 408.89712425195046 729.191477590652 412.3013183147212L729.191477590652 412.3013183147212Q729.191477590652 413.37859491686385 732.6172171854656 413.37859491686385L732.6172171854656 413.37859491686385L744.7042606615062 411.82731660977845Q748.9056394098625 411.82731660977845 748.9056394098625 414.62823577534937L748.9056394098625 414.62823577534937Q748.9056394098625 417.73079238952016 742.4635253290495 419.75607240154835Q736.0214112482364 421.75980688153373 730.2902997248374 421.75980688153373L730.2902997248374 421.75980688153373Q718.030891992454 421.75980688153373 708.9602230024129 415.94251322996337Q699.8895540123718 410.12521957839306 699.8895540123718 399.89109185803784L699.8895540123718 399.89109185803784Q699.8895540123718 391.35906116906807 712.8384187701265 380.88793259624146Q725.7872835278812 370.4168040234149 744.4026232129062 363.19905078905913Q763.0179628979312 355.98129755470336 776.6778302131 355.98129755470336L776.6778302131 355.98129755470336Q804.4284754842948 355.98129755470336 804.4284754842948 378.7980159880847ZM682.2006722051894 494.66988731454836L682.2006722051894 494.66988731454836Q682.2006722051894 495.14388901949116 682.8254926344322 495.14388901949116L682.8254926344322 495.14388901949116Q686.380505421503 495.14388901949116 697.950456128515 486.6764949266499Q709.4988613034842 478.23064636585156 724.5376426693957 464.8939620313255L724.5376426693957 464.8939620313255Q705.9223029843707 473.72763016889525 694.0722603608016 481.8718412810937Q682.2006722051894 490.0160523932921 682.2006722051894 494.66988731454836ZM811.581592122522 433.39439418467435L811.581592122522 433.39439418467435L819.1656194016062 432.6187550311316Q824.4442747521052 432.6187550311316 824.4442747521052 437.89741038163066L824.4442747521052 437.89741038163066Q824.4442747521052 440.6983295472015 819.337983657949 444.1025236099723Q814.2101470317501 447.5067176727431 809.0176738094225 450.3938189664854Q803.8252005870949 453.25937472818487 803.8252005870949 454.81065303527026L803.8252005870949 454.81065303527026Q803.8252005870949 455.8879296374129 806.302936772023 456.2111126180557L806.302936772023 456.2111126180557Q811.732410846822 456.2111126180557 826.9220109370334 447.5067176727431Q842.1331565592876 438.82386825947333 843.2104331614303 438.82386825947333L843.2104331614303 438.82386825947333Q845.3865318977583 438.82386825947333 845.3865318977583 440.99996699580146L845.3865318977583 440.99996699580146Q845.2357131734584 442.5512453028869 835.5402237541746 448.67017640305716Q825.8447343348907 454.81065303527026 812.8958695771361 460.47712796254064Q799.9470048193814 466.12205735776814 793.117071161797 466.12205735776814L793.117071161797 466.12205735776814Q782.408941736499 466.12205735776814 782.408941736499 454.81065303527026L782.408941736499 454.81065303527026Q782.408941736499 451.5572776967995 786.8257758052838 447.6790819290859Q791.2426098740688 443.8008861613724 795.6809894748964 440.99996699580146Q800.0978235436813 438.19904783023054 800.0978235436813 437.5095908048593Q800.0978235436813 436.820133779488 797.9217248073531 435.8721303696024L797.9217248073531 435.8721303696024Q791.4149741304116 433.0927567360744 791.4149741304116 428.4389218148182L791.4149741304116 428.4389218148182Q791.4149741304116 419.75607240154835 805.9151171952516 411.91349873794985Q820.4152602600917 404.07092507435135 832.8254867167751 404.07092507435135L832.8254867167751 404.07092507435135Q839.6554203743596 404.07092507435135 844.1584365713157 406.63484338745087Q848.6399072362292 409.1987617005504 848.6399072362292 414.39123492287797Q848.6399072362292 419.58370814520555 841.4436995339163 424.08672434216186Q834.2259462995605 428.5897405391181 831.1233896853897 428.5897405391181L831.1233896853897 428.5897405391181Q829.8737488269043 428.5897405391181 828.8611088208902 427.9649201098754Q827.8700143469189 427.34009968063265 827.8700143469189 426.5644605270899Q827.8700143469189 425.78882137354725 832.1360296914038 424.02208774603326Q836.4020450358887 422.23380858647647 836.4020450358887 420.6825302793911L836.4020450358887 420.6825302793911Q836.4020450358887 419.90689112584835 834.1397641713892 419.90689112584835Q831.8990288389324 419.90689112584835 819.4888023822491 424.797726899576Q807.0785759255657 429.66701714126077 807.0785759255657 431.69229715328896L807.0785759255657 431.69229715328896Q807.0785759255657 433.39439418467435 811.581592122522 433.39439418467435ZM845.0848944491585 400.9683684601805L845.0848944491585 400.9683684601805Q845.0848944491585 398.4906322752524 858.4215787836845 396.4868977952671Q871.7582631182105 394.4616177832389 886.9694087404648 393.6859786296962L886.9694087404648 393.6859786296962Q899.6812726457481 382.2022100508555 909.9154003661033 374.1441810668285L909.9154003661033 374.1441810668285L913.3411399609168 371.34326190125756Q915.6680574215451 371.34326190125756 915.6680574215451 374.7690014960712L915.6680574215451 374.7690014960712L915.969694870145 382.3530287751555Q915.517238697245 384.0766713385837 909.4629441932034 393.06115820045346L909.4629441932034 393.06115820045346L917.0685170043305 393.06115820045346Q934.2833971065701 393.06115820045346 936.9981341439697 396.40071566709565Q939.7128711813691 399.7402731337379 939.7128711813691 401.7440076137232L939.7128711813691 401.7440076137232Q939.7128711813691 404.39410805499415 934.4342158308701 404.54492677929414Q929.155560480371 404.6957455035941 901.3833696771335 404.6957455035941L901.3833696771335 404.6957455035941Q879.2130172050377 427.51246393697545 866.6519720240543 445.17980021211497L866.6519720240543 445.17980021211497Q861.8257728464553 451.7080964210994 858.2707600593845 456.8143875152556Q854.694201740271 461.94222414145463 852.7551038564142 464.03214074961136Q850.8160059725574 466.12205735776814 849.113908941172 466.12205735776814L849.113908941172 466.12205735776814Q843.986072314973 466.12205735776814 840.4310595279022 462.71786329499736Q836.8545012087886 459.3136692322266 836.8545012087886 454.33665133032747L836.8545012087886 454.33665133032747Q836.8545012087886 440.6983295472015 874.8608197323814 404.8465642278941L874.8608197323814 404.8465642278941L850.9668246968573 404.8465642278941Q845.0848944491585 404.8465642278941 845.0848944491585 400.9683684601805ZM956.2382942582373 456.2111126180557Q950.7226380552669 460.39094583436923 943.0524286480113 464.26914160208275Q935.3606737087126 468.1473373697963 930.1682004863852 468.1473373697963Q924.9757272640576 468.1473373697963 921.8731706498867 465.0447807556255Q918.7706140357159 461.94222414145463 918.7706140357159 457.4392079444983L918.7706140357159 457.4392079444983Q918.7706140357159 450.005999389714 929.4787434610138 437.42340867668787L929.4787434610138 437.42340867668787Q930.4052013388565 436.49695079884515 930.4052013388565 435.9583124977739Q930.4052013388565 435.41967419670254 930.0820183582138 435.41967419670254Q929.7803809096138 435.41967419670254 927.841283025757 436.1091312220738Q925.9021851419003 436.820133779488 917.2193357286304 443.2407023282582Q908.5364863153607 449.6828164090713 900.3060930749908 456.900569643427Q892.0756998346209 464.11832287778276 888.5853236436789 464.11832287778276Q885.0949474527366 464.11832287778276 883.4790325495226 461.1665849879119Q881.8415721142658 458.21484709804105 881.8415721142658 454.48747005462747L881.8415721142658 454.48747005462747Q881.8415721142658 443.02524700782965 899.7674547739194 419.58370814520555Q917.6717919015304 396.16371481462426 937.2351349964409 377.78537598207066Q956.7769325593086 359.407037149517 962.2064066341076 359.407037149517L962.2064066341076 359.407037149517Q964.8349615433357 359.407037149517 967.2480611321351 361.64777248197373Q969.6396151888919 363.91005334647326 969.6396151888919 367.7020669860154Q969.6396151888919 371.49408062555756 960.3319453463795 384.52912751148364Q951.0242755038669 397.5641743974097 939.5620524570691 411.99968086612125L939.5620524570691 411.99968086612125Q925.1265459883575 429.99020012190357 925.1265459883575 431.54147842898897L925.1265459883575 431.54147842898897Q925.1265459883575 432.16629885823176 925.7513664176003 432.16629885823176Q926.376186846843 432.16629885823176 931.0300217680992 429.6023805451322Q935.6838566893556 427.0384622320327 941.1133307641545 424.797726899576Q946.5428048389534 422.5354460350764 948.6327214471102 422.14762645830507Q950.7226380552669 421.75980688153373 953.5881938169665 421.75980688153373Q956.4537495786658 421.75980688153373 959.3408508724082 423.0094477400192Q962.2064066341076 424.2375430664618 962.2064066341076 426.6506426552613Q962.2064066341076 429.06374224406085 950.9596389077384 442.0126070018156Q939.7128711813691 454.96147175957026 939.7128711813691 456.74975091912705Q939.7128711813691 458.53803007868385 941.2641494884543 458.53803007868385L941.2641494884543 458.53803007868385Q944.5175248269253 458.53803007868385 953.9760133937378 451.7080964210994L953.9760133937378 451.7080964210994Q957.5525717128513 449.23036023617135 958.1773921420942 448.90717725552855Q958.7806670392939 448.6055398069286 959.5563061928367 448.6055398069286L959.5563061928367 448.6055398069286Q961.7324049291648 448.6055398069286 961.7324049291648 450.78163854325675L961.7324049291648 450.78163854325675Q961.7324049291648 452.00973386969935 956.2382942582373 456.2111126180557ZM990.2802348859451 405.6222033814368L990.2802348859451 405.6222033814368Q991.3575114880878 405.6222033814368 992.3055148979732 406.63484338745087Q993.231972775816 407.64748339346494 993.231972775816 408.961760848079Q993.231972775816 410.27603830269305 991.6806944687306 412.3013183147212L991.6806944687306 412.3013183147212Q985.6263999646889 419.75607240154835 983.6873020808322 421.69517028540514Q981.7482041969753 423.63426816926193 981.7482041969753 424.2375430664618Q981.7482041969753 424.8623634957045 982.7608442029895 424.8623634957045Q983.7734842090035 424.8623634957045 991.0558740394878 422.14762645830507Q998.3382638699721 419.43288942090555 1000.6651813306004 419.43288942090555Q1002.9920987912284 419.43288942090555 1005.4913805081993 421.37198730476234Q1007.9691166931274 423.31108518861913 1007.9691166931274 426.3490052066614Q1007.9691166931274 429.36537969266084 998.510628126315 440.13814571408733Q989.0305940274596 450.93245726755674 989.0305940274596 454.18583260602753L989.0305940274596 454.18583260602753Q989.0305940274596 454.81065303527026 989.5045957324024 454.81065303527026L989.5045957324024 454.81065303527026Q990.2802348859451 454.81065303527026 992.3055148979732 453.7980130292562Q994.3092493779587 452.7853730232421 994.7832510829014 452.7853730232421L994.7832510829014 452.7853730232421Q996.4853481142868 452.7853730232421 996.4853481142868 454.0350138817276L996.4853481142868 454.0350138817276Q996.4853481142868 458.8396675272838 988.8797753031596 463.64432117284Q981.2742024920326 468.44897481839627 976.081729269705 468.44897481839627Q970.8892560473774 468.44897481839627 967.6358807089065 465.5834190566968Q964.3825053704358 462.71786329499736 964.3825053704358 457.9132096494411Q964.3825053704358 453.10855600388487 969.1009768878206 447.1188980959717Q973.8409939372483 441.15078572010145 978.8826484352759 438.67304953517333Q983.9243029333035 436.19531335024527 983.9243029333035 434.6440350431598L983.9243029333035 434.6440350431598Q983.9243029333035 434.170033338217 983.7734842090035 434.0192146139171L983.7734842090035 434.0192146139171Q976.9435505514192 436.820133779488 972.5913530787628 436.820133779488L972.5913530787628 436.820133779488Q964.059322389793 436.820133779488 964.059322389793 431.8431158775889L964.059322389793 431.8431158775889Q964.059322389793 426.11200435419 973.9918126615482 416.8043345116775Q983.9243029333035 407.496664669165 990.2802348859451 405.6222033814368ZM1050.9309075865767 426.7368247834327L1050.9309075865767 426.7368247834327Q1050.9309075865767 430.91665799974623 1055.9079254884755 430.91665799974623L1055.9079254884755 430.91665799974623Q1060.561760409732 430.91665799974623 1066.1420532088305 428.5897405391181Q1071.7223460079294 426.26282307849 1072.1963477128725 426.26282307849Q1072.6488038857724 426.26282307849 1073.1874421868438 427.0384622320327Q1073.7476260199578 427.8141013855754 1073.7476260199578 428.5897405391181L1073.7476260199578 428.5897405391181Q1073.7476260199578 430.2918375705035 1066.529872785602 433.006574607903Q1059.3121195512463 435.7213116453025 1056.0587442127753 435.7213116453025Q1052.8053688743048 435.7213116453025 1051.4695458876477 435.6566750491739Q1050.1552684330336 435.5704929210025 1049.379629279491 437.2725899523879L1049.379629279491 437.2725899523879Q1037.8958607006502 458.8396675272838 1026.5844563781525 464.41996032638275L1026.5844563781525 464.41996032638275Q1021.6074384762535 466.8976965113108 1016.1133278053259 466.8976965113108Q1010.5976716023555 466.8976965113108 1007.1072954114135 463.25650159606863Q1003.6169192204712 459.6153066808265 1003.6169192204712 451.7080964210994L1003.6169192204712 451.7080964210994Q1003.6169192204712 440.6983295472015 1010.834672454827 431.15365885221763Q1018.0524256891828 421.60898815723374 1027.2092768073953 416.8043345116775Q1036.344582393565 411.99968086612125 1043.799336480392 411.99968086612125L1043.799336480392 411.99968086612125Q1056.3603816613754 413.37859491686385 1056.3603816613754 419.58370814520555L1056.3603816613754 419.58370814520555Q1056.3603816613754 421.3073507086338 1055.5201059117044 422.6216281632478Q1054.6582846299902 423.93590561786186 1054.1196463289189 424.17290647033326Q1053.5810080278475 424.4099073228046 1052.8053688743048 424.5607260471046L1052.8053688743048 424.5607260471046Q1050.9309075865767 425.0131822200045 1050.9309075865767 426.7368247834327ZM1038.2190436812934 433.86839588961715Q1033.2420257793942 437.5957729330307 1028.5235542620094 443.3268844564296Q1023.7835372125816 449.0579959798285 1023.7835372125816 452.72073642711354Q1023.7835372125816 456.3619313423557 1025.8088172246098 456.3619313423557L1025.8088172246098 456.3619313423557Q1028.9113738387805 456.3619313423557 1037.206403675279 446.8172606473718Q1045.5014335117776 437.2725899523879 1045.5014335117776 431.06747672404623L1045.5014335117776 431.06747672404623Q1045.5014335117776 430.1410188462035 1044.3379747814633 430.1410188462035Q1043.1745160511496 430.1410188462035 1038.2190436812934 433.86839588961715ZM1085.8346694959982 433.39439418467435L1085.8346694959982 433.39439418467435L1093.4402423071256 432.6187550311316Q1098.7188976576244 432.6187550311316 1098.7188976576244 437.89741038163066L1098.7188976576244 437.89741038163066Q1098.7188976576244 440.6983295472015 1093.5910610314254 444.1025236099723Q1088.4847699372694 447.5067176727431 1083.270751182899 450.3938189664854Q1078.0782779605715 453.25937472818487 1078.0782779605715 454.81065303527026L1078.0782779605715 454.81065303527026Q1078.0782779605715 455.8879296374129 1080.5560141454994 456.2111126180557L1080.5560141454994 456.2111126180557Q1085.9854882202985 456.2111126180557 1101.1966338425527 447.5067176727431Q1116.407779464807 438.82386825947333 1117.4850560669497 438.82386825947333L1117.4850560669497 438.82386825947333Q1119.6611548032774 438.82386825947333 1119.6611548032774 440.99996699580146L1119.6611548032774 440.99996699580146Q1119.5103360789776 442.5512453028869 1109.814846659694 448.67017640305716Q1100.11935724041 454.81065303527026 1087.1489469506123 460.47712796254064Q1074.2000821928577 466.12205735776814 1067.3701485352735 466.12205735776814L1067.3701485352735 466.12205735776814Q1056.6835646420182 466.12205735776814 1056.6835646420182 454.81065303527026L1056.6835646420182 454.81065303527026Q1056.6835646420182 451.5572776967995 1061.1003987108033 447.6790819290859Q1065.517232779588 443.8008861613724 1069.9340668483728 440.99996699580146Q1074.3509009171576 438.19904783023054 1074.3509009171576 437.5095908048593Q1074.3509009171576 436.820133779488 1072.1963477128725 435.8721303696024L1072.1963477128725 435.8721303696024Q1065.668051503888 433.0927567360744 1065.668051503888 428.4389218148182L1065.668051503888 428.4389218148182Q1065.668051503888 419.75607240154835 1080.1681945687283 411.91349873794985Q1094.6898831656108 404.07092507435135 1107.1001096222944 404.07092507435135L1107.1001096222944 404.07092507435135Q1113.908497747836 404.07092507435135 1118.4115139447922 406.63484338745087Q1122.9145301417484 409.1987617005504 1122.9145301417484 414.39123492287797Q1122.9145301417484 419.58370814520555 1115.6967769073926 424.08672434216186Q1108.4790236730369 428.5897405391181 1105.3764670588662 428.5897405391181L1105.3764670588662 428.5897405391181Q1104.1483717324236 428.5897405391181 1103.1357317264096 427.9649201098754Q1102.1230917203952 427.34009968063265 1102.1230917203952 426.5644605270899Q1102.1230917203952 425.78882137354725 1106.3891070648801 424.02208774603326Q1110.655122409365 422.23380858647647 1110.655122409365 420.6825302793911L1110.655122409365 420.6825302793911Q1110.655122409365 419.90689112584835 1108.4143870769085 419.90689112584835Q1106.1521062124089 419.90689112584835 1093.7418797557257 424.797726899576Q1081.331653299042 429.66701714126077 1081.331653299042 431.69229715328896L1081.331653299042 431.69229715328896Q1081.331653299042 433.39439418467435 1085.8346694959982 433.39439418467435ZM1231.3531929134278 422.5354460350764L1231.3531929134278 422.5354460350764Q1231.3531929134278 426.41364180279 1222.3471605195155 429.99020012190357Q1213.3626736576457 433.5452129089743 1204.205822539433 435.7213116453025L1204.205822539433 435.7213116453025L1194.8981526969205 437.89741038163066Q1180.6134649525088 453.4101934524848 1165.2730461379974 460.08930838576924Q1149.9110817914434 466.7468777870109 1137.9533115076601 466.7468777870109L1137.9533115076601 466.7468777870109Q1131.1449233821186 466.7468777870109 1125.930904627748 464.26914160208275Q1120.7384314054202 461.79140541715464 1118.109876496192 458.45184795051244Q1115.4597760549213 455.1122904838702 1113.908497747836 450.93245726755674L1113.908497747836 450.93245726755674Q1111.4307615629077 444.72734403921504 1111.4307615629077 439.9226903936588L1111.4307615629077 439.9226903936588Q1111.4307615629077 426.5644605270899 1116.9464177658783 414.39123492287797Q1122.4405284368058 402.218009318666 1131.6835616831895 393.06115820045346Q1140.905049397531 383.9043070822409 1152.6904554249713 376.5357351235852Q1164.4974069844548 369.16716316492943 1177.209270889738 364.5133282436732L1177.209270889738 364.5133282436732Q1203.4301833858904 354.9040209525607 1225.1480796850865 354.9040209525607L1225.1480796850865 354.9040209525607Q1238.3339452953123 354.9040209525607 1246.0903368307395 358.6313979959743Q1253.8467283661666 362.35877503938787 1253.8467283661666 369.49034614557223L1253.8467283661666 369.49034614557223Q1253.8467283661666 374.5966372397284 1244.689877247954 384.0766713385837Q1235.5330261297413 393.5351599053962 1230.2543707792424 393.5351599053962L1230.2543707792424 393.5351599053962Q1227.3241784214142 393.5351599053962 1227.3241784214142 390.4326032912254Q1227.3241784214142 387.33004667705455 1232.5812882398704 382.1375734547269Q1237.8599435903698 376.92355470035653 1237.8599435903698 376.1479155468138Q1237.8599435903698 375.3722763932711 1236.9334857125268 375.3722763932711L1236.9334857125268 375.3722763932711Q1231.654830362028 375.3722763932711 1221.2698839173727 379.33665428915606Q1210.8633919406748 383.30103218504104 1198.625529740334 390.49723988735394Q1186.3661220079507 397.7149931217097 1175.1839908777101 406.63484338745087Q1164.0234052795122 415.55469365319203 1156.5686511926851 426.8014613795613Q1149.1354426379007 438.0482291059306 1149.1354426379007 448.75635853122856L1149.1354426379007 448.75635853122856Q1149.1354426379007 453.25937472818487 1153.466094578514 453.25937472818487L1153.466094578514 453.25937472818487Q1160.4468469603985 453.25937472818487 1170.3793372321538 447.7437185252145Q1180.3118275039092 442.2496078542869 1180.462646228209 439.9226903936588L1180.462646228209 439.9226903936588Q1178.135728767581 440.0735091179588 1176.5844504604956 440.0735091179588L1176.5844504604956 440.0735091179588Q1170.7025202127966 440.0735091179588 1166.4365048683117 436.88477037561654Q1162.1704895238267 433.71757716531715 1162.1704895238267 428.3527396866467Q1162.1704895238267 423.0094477400192 1169.4528793543109 418.2694306905915Q1176.7352691847955 413.5509591732067 1187.529580738265 410.6638578794644Q1198.3023467596913 407.79830211776493 1208.471837883918 407.79830211776493Q1218.619783476102 407.79830211776493 1224.9972609607862 411.3748604368785Q1231.3531929134278 414.9298732239493 1231.3531929134278 422.5354460350764ZM1262.5295777794363 457.2883892201984L1262.5295777794363 457.2883892201984Q1262.5295777794363 458.06402837374105 1263.606854381579 458.365665822341L1263.606854381579 458.365665822341Q1264.7056765157645 458.365665822341 1271.1477905965771 453.94883175355614Q1277.5683591453476 449.5319976847713 1278.4301804270617 449.0579959798285Q1279.2920017087758 448.6055398069286 1280.0676408623185 448.6055398069286L1280.0676408623185 448.6055398069286Q1282.2221940666036 448.6055398069286 1282.2221940666036 450.69545641508535Q1282.2221940666036 452.7853730232421 1271.2986093208774 459.91694412942644Q1260.353479043108 467.0700607676536 1255.850462846152 467.0700607676536L1255.850462846152 467.0700607676536Q1253.9975470904665 467.0700607676536 1251.9076304823097 465.5187824605682Q1249.817713874153 463.9675041534828 1249.817713874153 461.85604201328323Q1249.817713874153 459.7661254051265 1250.8949904762958 457.2883892201984Q1251.972267078438 454.81065303527026 1251.972267078438 453.94883175355614Q1251.972267078438 453.10855600388487 1251.5198109055382 453.10855600388487Q1251.0458092005956 453.10855600388487 1250.5933530276957 453.4101934524848L1250.5933530276957 453.4101934524848Q1235.5330261297413 464.7431433070255 1228.401455023557 464.7431433070255L1228.401455023557 464.7431433070255Q1224.3724405315434 464.7431433070255 1222.0455230709154 461.79140541715464Q1219.7186056102873 458.8396675272838 1219.2446039053443 455.8879296374129L1219.2446039053443 455.8879296374129L1218.9429664567447 452.93619174754207Q1218.9429664567447 447.8299006533859 1222.8857988205864 441.0861491239729Q1226.8501767164717 434.320852062517 1233.2922907972847 428.2019209623468Q1239.7344048780978 422.0829898621765 1249.1067113167387 417.88161111382016Q1258.5005632874227 413.70177789750664 1268.260689302835 413.70177789750664L1268.260689302835 413.70177789750664Q1273.539344653334 413.70177789750664 1278.1285429784616 416.4811515310347Q1282.6961957715466 419.2820706966056 1282.6961957715466 423.0094477400192Q1282.6961957715466 426.7368247834327 1275.4138059410625 427.51246393697545L1275.4138059410625 427.51246393697545Q1269.9843318662633 428.7405592634181 1257.4879232814087 436.4323142027166Q1244.991514696554 444.1025236099723 1244.991514696554 448.1315381019858L1244.991514696554 448.1315381019858Q1244.991514696554 449.8336351333712 1246.7151572599823 449.8336351333712L1246.7151572599823 449.8336351333712Q1249.817713874153 449.8336351333712 1261.366119049122 440.99996699580146Q1272.914524224091 432.16629885823176 1275.2414416847196 432.16629885823176Q1277.5683591453476 432.16629885823176 1277.5683591453476 434.94567249175975L1277.5683591453476 434.94567249175975Q1277.5683591453476 436.97095250378794 1276.1032629664337 438.75923166334474Q1274.6381667875194 440.5259652908587 1274.013346358277 441.3016044444014L1274.013346358277 441.3016044444014Q1272.7637054997913 442.85288275148685 1267.6574144056353 448.2177202301572Q1262.5295777794363 453.5610121767848 1262.5295777794363 457.2883892201984ZM1288.9013089998884 400.9683684601805L1288.9013089998884 400.9683684601805Q1288.9013089998884 398.4906322752524 1302.237993334414 396.4868977952671Q1315.5746776689402 394.4616177832389 1330.7858232911944 393.6859786296962L1330.7858232911944 393.6859786296962Q1343.4976871964777 382.2022100508555 1353.7533604488758 374.1441810668285L1353.7533604488758 374.1441810668285L1357.1575545116466 371.34326190125756Q1359.4844719722746 371.34326190125756 1359.4844719722746 374.7690014960712L1359.4844719722746 374.7690014960712L1359.7861094208747 382.3530287751555Q1359.3336532479748 384.0766713385837 1353.2793587439332 393.06115820045346L1353.2793587439332 393.06115820045346L1360.8849315550601 393.06115820045346Q1378.0998116572996 393.06115820045346 1380.8145486946992 396.40071566709565Q1383.5292857320987 399.7402731337379 1383.5292857320987 401.7440076137232L1383.5292857320987 401.7440076137232Q1383.5292857320987 404.39410805499415 1378.2506303815999 404.54492677929414Q1372.971975031101 404.6957455035941 1345.221329759906 404.6957455035941L1345.221329759906 404.6957455035941Q1323.0294317557673 427.51246393697545 1310.4683865747843 445.17980021211497L1310.4683865747843 445.17980021211497Q1305.663732929228 451.7080964210994 1302.0871746101143 456.8143875152556Q1298.5106162910006 461.94222414145463 1296.5715184071441 464.03214074961136Q1294.6324205232872 466.12205735776814 1292.9303234919016 466.12205735776814L1292.9303234919016 466.12205735776814Q1287.8240323977457 466.12205735776814 1284.247474078632 462.71786329499736Q1280.6709157595183 459.3136692322266 1280.6709157595183 454.33665133032747L1280.6709157595183 454.33665133032747Q1280.6709157595183 440.6983295472015 1318.6772342831114 404.8465642278941L1318.6772342831114 404.8465642278941L1294.8047847796302 404.8465642278941Q1288.9013089998884 404.8465642278941 1288.9013089998884 400.9683684601805ZM1369.2661435197301 421.13498645229095L1369.2661435197301 421.13498645229095L1375.7728941966716 420.5317115550911Q1377.9489929329998 420.5317115550911 1377.9489929329998 423.0094477400192L1377.9489929329998 423.0094477400192Q1377.9489929329998 424.08672434216186 1375.298892491729 433.24357546037436L1375.298892491729 433.24357546037436Q1379.0262695351425 434.94567249175975 1383.6154678602702 434.94567249175975Q1388.1831206533552 434.94567249175975 1390.8116755625833 430.76583927544624L1390.8116755625833 430.76583927544624Q1392.3629538696687 430.76583927544624 1392.3629538696687 432.3171175825317L1392.3629538696687 432.3171175825317Q1392.2121351453684 435.41967419670254 1388.4847581019549 437.2725899523879Q1384.7789265905844 439.1470512401161 1380.9007308228706 439.1470512401161Q1377.0225350551573 439.1470512401161 1373.5967954603434 438.3714120865734L1373.5967954603434 438.3714120865734Q1373.4459767360436 445.50298319275777 1359.3336532479748 455.586292188813Q1345.221329759906 465.6696011848682 1334.0391986296654 465.6696011848682L1334.0391986296654 465.6696011848682Q1321.779790897282 465.6696011848682 1321.779790897282 451.3849134404566L1321.779790897282 451.3849134404566Q1321.779790897282 441.15078572010145 1341.881772293264 417.73079238952016Q1361.962208157203 394.3107990589389 1384.0032874370413 375.30763979714254Q1406.0228211848375 356.30448053534616 1412.227934413179 356.30448053534616L1412.227934413179 356.30448053534616Q1413.9300314445645 356.30448053534616 1414.7056705981072 360.18267630305974Q1415.4813097516499 364.06087207077326 1415.4813097516499 367.9390678384868L1415.4813097516499 367.9390678384868Q1415.4813097516499 370.5676227477149 1403.9329045766804 382.28839217902697Q1392.3629538696687 393.9876160782961 1380.8145486946992 405.94538636207955Q1369.2661435197301 417.88161111382016 1369.2661435197301 421.13498645229095ZM1363.0610302913883 429.36537969266084L1363.0610302913883 429.36537969266084L1363.0610302913883 427.66328266127545Q1361.1865690036602 427.51246393697545 1351.4910795843766 440.4613286947301Q1341.7955901650926 453.4101934524848 1341.7955901650926 454.96147175957026L1341.7955901650926 454.96147175957026Q1341.7955901650926 455.586292188813 1342.4204105943354 455.586292188813L1342.4204105943354 455.586292188813Q1349.8751646811625 455.586292188813 1358.1701945176605 448.84254065939996Q1366.465224354159 442.0772435979441 1366.465224354159 435.7213116453025L1366.465224354159 435.7213116453025Q1365.6895852006164 434.94567249175975 1365.064764771374 434.4932163188599Q1364.4399443421312 434.0192146139171 1364.0521247653596 433.48057631284576Q1363.664305188588 432.9419380117744 1363.5134864642882 432.46793630683163L1363.5134864642882 432.46793630683163Q1363.0610302913883 431.06747672404623 1363.0610302913883 429.36537969266084ZM1452.8628078460001 440.0735091179588L1452.8628078460001 440.0735091179588Q1455.0389065823283 440.0735091179588 1455.0389065823283 442.4004265785869Q1455.0389065823283 444.72734403921504 1448.2089729247436 450.54463769078535Q1441.400584799202 456.3619313423557 1432.0067328285181 461.3174037122119Q1422.6128808578342 466.29442161411095 1416.5801318858353 466.29442161411095L1416.5801318858353 466.29442161411095Q1408.9745590747084 466.29442161411095 1408.9745590747084 458.06402837374105L1408.9745590747084 458.06402837374105Q1408.9745590747084 456.03874836171286 1410.5258373817937 453.6471943049562Q1412.077115688879 451.2340947161567 1412.077115688879 450.93245726755674L1412.077115688879 450.93245726755674Q1412.077115688879 450.005999389714 1410.9782935546937 450.005999389714Q1409.901016952551 450.005999389714 1409.5131973757798 450.156818114014Q1409.1253777990082 450.30763683831395 1404.169905429152 453.25937472818487L1404.169905429152 453.25937472818487Q1390.0360364090402 461.94222414145463 1386.1578406413269 461.94222414145463Q1382.2796448736135 461.94222414145463 1379.4140891119137 459.3783058283551Q1376.5485333502143 456.8143875152556 1376.5485333502143 453.5610121767848L1376.5485333502143 453.5610121767848Q1376.5485333502143 447.05426149984316 1381.2023682714707 440.2243278422588Q1385.8562031927268 433.39439418467435 1391.9104976967687 428.7405592634181Q1397.9647922008103 424.08672434216186 1403.1572654231377 421.13498645229095Q1408.3497386454655 418.20479409446295 1410.202654401151 418.20479409446295Q1412.077115688879 418.20479409446295 1414.856489322407 420.833349003691Q1417.657408487978 423.4619039129191 1417.657408487978 425.87500350171865Q1417.657408487978 428.2881030905182 1415.9553114565924 429.66701714126077L1415.9553114565924 429.66701714126077Q1404.4715428777517 439.750326137316 1404.4715428777517 443.6285219050296L1404.4715428777517 443.6285219050296Q1404.4715428777517 445.6538019170577 1406.3244586334372 445.6538019170577L1406.3244586334372 445.6538019170577Q1410.8274748303938 445.6538019170577 1419.2086867950634 438.285229958402Q1427.5898987597334 430.91665799974623 1432.8685541102323 424.8623634957045L1432.8685541102323 424.8623634957045Q1437.0483873265457 420.5317115550911 1440.1509439407164 420.5317115550911Q1443.2535005548875 420.5317115550911 1446.2698750408872 422.7724468875478Q1449.307795058929 425.0131822200045 1449.307795058929 426.8014613795613Q1449.307795058929 428.5897405391181 1448.5321559053864 429.9040179937321Q1447.7565167518437 431.21829544834617 1442.3270426770446 438.13441123410206Q1436.8975686022459 445.028981487815 1435.410926891289 446.90344277554317Q1433.945830712375 448.75635853122856 1433.945830712375 450.005999389714Q1433.945830712375 451.2340947161567 1434.5706511416179 451.2340947161567Q1435.1954715708603 451.2340947161567 1435.7341098719317 451.1694581200281Q1436.272748173003 451.0832759918567 1439.6123056396455 448.75635853122856Q1442.9518631062874 446.42944107060043 1446.6576946176583 443.6285219050296L1446.6576946176583 443.6285219050296Q1451.4838937952572 440.0735091179588 1452.8628078460001 440.0735091179588ZM1505.0029953897042 456.51275006665566L1505.0029953897042 456.51275006665566L1509.8076490352605 454.6598343109703Q1511.9837477715887 454.6598343109703 1511.9837477715887 456.3619313423557L1511.9837477715887 456.3619313423557Q1511.9837477715887 460.39094583436923 1505.3908149664758 464.03214074961136Q1498.7978821613628 467.67333566485354 1492.8082242534492 467.67333566485354Q1486.8401118775791 467.67333566485354 1483.5867365391082 465.1309628837969Q1480.3333612006377 462.56704457069736 1480.3333612006377 457.2883892201984Q1480.3333612006377 452.00973386969935 1486.3876557046792 444.2533423342723L1486.3876557046792 444.2533423342723Q1487.163294858222 443.4777031807296 1487.163294858222 442.93906487965825Q1487.163294858222 442.4004265785869 1486.5384744289795 442.4004265785869Q1485.9136539997367 442.4004265785869 1485.4396522947936 442.70206402718685Q1484.9871961218937 443.02524700782965 1478.782082893552 446.90344277554317L1478.782082893552 446.90344277554317Q1463.8941202519404 456.3619313423557 1457.5166427672561 460.08930838576924L1457.5166427672561 460.08930838576924Q1454.888087858028 461.4682224365119 1452.5611703974 461.4682224365119Q1450.234252936772 461.4682224365119 1447.433333771201 458.53803007868385Q1444.653960137673 455.586292188813 1444.653960137673 452.6345542989421L1444.653960137673 452.6345542989421Q1444.653960137673 446.42944107060043 1462.1704776885126 429.9040179937321Q1479.7085407713948 413.37859491686385 1485.9136539997367 413.37859491686385L1485.9136539997367 413.37859491686385Q1488.2405714603647 413.70177789750664 1489.9426684917503 416.02869535813477Q1491.6447655231354 418.35561281876295 1491.6447655231354 421.52280602906234Q1491.6447655231354 424.7115447714046 1489.3178480625074 428.4389218148182L1489.3178480625074 428.4389218148182Q1485.9136539997367 433.86839588961715 1483.8237373915795 435.9583124977739Q1481.7338207834232 438.0482291059306 1481.7338207834232 438.58686740700193Q1481.7338207834232 439.1470512401161 1482.1862769563227 439.1470512401161Q1482.6602786612657 439.1470512401161 1483.5005544109372 438.58686740700193Q1484.3623756926509 438.0482291059306 1498.2376983282484 428.9775601158895Q1512.1345664958885 419.90689112584835 1513.8366635272741 418.8942511198342Q1515.5387605586593 417.88161111382016 1517.5640405706877 417.88161111382016Q1519.567775050673 417.88161111382016 1522.8426959211865 419.82070899767695Q1526.0960712596575 421.75980688153373 1526.0960712596575 425.0131822200045Q1526.0960712596575 428.2881030905182 1520.429596332387 434.6440350431598Q1514.7631214051166 440.99996699580146 1509.0320098817178 446.90344277554317Q1503.279352826276 452.7853730232421 1503.279352826276 455.2631092081702L1503.279352826276 455.2631092081702Q1503.279352826276 456.51275006665566 1505.0029953897042 456.51275006665566ZM1525.7728882790148 400.9683684601805L1525.7728882790148 400.9683684601805Q1525.7728882790148 398.4906322752524 1539.1311181455835 396.4868977952671Q1552.4678024801096 394.4616177832389 1567.6574025703208 393.6859786296962L1567.6574025703208 393.6859786296962Q1580.3908120076471 382.2022100508555 1590.6249397280021 374.1441810668285L1590.6249397280021 374.1441810668285L1594.029133790773 371.34326190125756Q1596.3560512514014 371.34326190125756 1596.3560512514014 374.7690014960712L1596.3560512514014 374.7690014960712L1596.679234232044 382.3530287751555Q1596.205232527101 384.0766713385837 1590.1509380230596 393.06115820045346L1590.1509380230596 393.06115820045346L1597.7565108341864 393.06115820045346Q1614.9713909364264 393.06115820045346 1617.6861279738255 396.40071566709565Q1620.400865011225 399.7402731337379 1620.400865011225 401.7440076137232L1620.400865011225 401.7440076137232Q1620.400865011225 404.39410805499415 1615.1437551927693 404.54492677929414Q1609.86509984227 404.6957455035941 1582.0929090390323 404.6957455035941L1582.0929090390323 404.6957455035941Q1559.9010110348936 427.51246393697545 1547.3399658539106 445.17980021211497L1547.3399658539106 445.17980021211497Q1542.5353122083543 451.7080964210994 1538.9587538892406 456.8143875152556Q1535.40374110217 461.94222414145463 1533.464643218313 464.03214074961136Q1531.5255453344562 466.12205735776814 1529.823448303071 466.12205735776814L1529.823448303071 466.12205735776814Q1524.695611676872 466.12205735776814 1521.1190533577583 462.71786329499736Q1517.5640405706877 459.3136692322266 1517.5640405706877 454.33665133032747L1517.5640405706877 454.33665133032747Q1517.5640405706877 440.6983295472015 1555.5703590942803 404.8465642278941L1555.5703590942803 404.8465642278941L1531.6763640587565 404.8465642278941Q1525.7728882790148 404.8465642278941 1525.7728882790148 400.9683684601805ZM1605.9869040745566 426.7368247834327L1605.9869040745566 426.7368247834327Q1605.9869040745566 430.91665799974623 1610.9423764444127 430.91665799974623L1610.9423764444127 430.91665799974623Q1615.5962113656688 430.91665799974623 1621.1765041647677 428.5897405391181Q1626.7783424959098 426.26282307849 1627.2307986688097 426.26282307849Q1627.7048003737523 426.26282307849 1628.2434386748237 427.0384622320327Q1628.782076975895 427.8141013855754 1628.782076975895 428.5897405391181L1628.782076975895 428.5897405391181Q1628.782076975895 430.2918375705035 1621.5643237415393 433.006574607903Q1614.3681160392262 435.7213116453025 1611.0931951687126 435.7213116453025Q1607.839819830242 435.7213116453025 1606.525542375628 435.6566750491739Q1605.211264921014 435.5704929210025 1604.4356257674713 437.2725899523879L1604.4356257674713 437.2725899523879Q1592.9518571886306 458.8396675272838 1581.6189073340897 464.41996032638275L1581.6189073340897 464.41996032638275Q1576.6634349642336 466.8976965113108 1571.147778761263 466.8976965113108Q1565.6536680903355 466.8976965113108 1562.1632918993932 463.25650159606863Q1558.672915708451 459.6153066808265 1558.672915708451 451.7080964210994L1558.672915708451 451.7080964210994Q1558.672915708451 440.6983295472015 1565.8906689428068 431.15365885221763Q1573.08687664512 421.60898815723374 1582.2437277633321 416.8043345116775Q1591.4005788815448 411.99968086612125 1598.8553329683723 411.99968086612125L1598.8553329683723 411.99968086612125Q1611.4163781493553 413.37859491686385 1611.4163781493553 419.58370814520555L1611.4163781493553 419.58370814520555Q1611.4163781493553 421.3073507086338 1610.5545568676416 422.6216281632478Q1609.7142811179701 423.93590561786186 1609.1540972848557 424.17290647033326Q1608.6154589837843 424.4099073228046 1607.839819830242 424.5607260471046L1607.839819830242 424.5607260471046Q1605.9869040745566 425.0131822200045 1605.9869040745566 426.7368247834327ZM1593.2534946372302 433.86839588961715Q1588.298022267374 437.5957729330307 1583.5580052179466 443.3268844564296Q1578.8395337005618 449.0579959798285 1578.8395337005618 452.72073642711354Q1578.8395337005618 456.3619313423557 1580.843268180547 456.3619313423557L1580.843268180547 456.3619313423557Q1583.9458247947177 456.3619313423557 1592.262400163259 446.8172606473718Q1600.5574299997575 437.2725899523879 1600.5574299997575 431.06747672404623L1600.5574299997575 431.06747672404623Q1600.5574299997575 430.1410188462035 1599.3939712694437 430.1410188462035Q1598.2305125391294 430.1410188462035 1593.2534946372302 433.86839588961715ZM1666.012756345945 456.51275006665566L1666.012756345945 456.51275006665566L1670.8174099915013 454.6598343109703Q1672.9935087278295 454.6598343109703 1672.9935087278295 456.3619313423557L1672.9935087278295 456.3619313423557Q1672.9935087278295 460.39094583436923 1666.4005759227166 464.03214074961136Q1659.8076431176032 467.67333566485354 1653.8395307417331 467.67333566485354Q1647.8714183658626 467.67333566485354 1644.618043027392 465.1309628837969Q1641.3431221568785 462.56704457069736 1641.3431221568785 457.2883892201984Q1641.3431221568785 452.00973386969935 1647.39741666092 444.2533423342723L1647.39741666092 444.2533423342723Q1648.1730558144627 443.4777031807296 1648.1730558144627 442.93906487965825Q1648.1730558144627 442.4004265785869 1647.5482353852199 442.4004265785869Q1646.9449604880201 442.4004265785869 1646.4709587830775 442.70206402718685Q1645.9969570781345 443.02524700782965 1639.7918438497927 446.90344277554317L1639.7918438497927 446.90344277554317Q1624.9038812081812 456.3619313423557 1618.54794925554 460.08930838576924L1618.54794925554 460.08930838576924Q1615.919394346312 461.4682224365119 1613.5924768856835 461.4682224365119Q1611.2655594250555 461.4682224365119 1608.4646402594844 458.53803007868385Q1605.6637210939139 455.586292188813 1605.6637210939139 452.6345542989421L1605.6637210939139 452.6345542989421Q1605.6637210939139 446.42944107060043 1623.201784176796 429.9040179937321Q1640.7398472596783 413.37859491686385 1646.9449604880201 413.37859491686385L1646.9449604880201 413.37859491686385Q1649.2718779486481 413.70177789750664 1650.9739749800337 416.02869535813477Q1652.676072011419 418.35561281876295 1652.676072011419 421.52280602906234Q1652.676072011419 424.7115447714046 1650.349154550791 428.4389218148182L1650.349154550791 428.4389218148182Q1646.9449604880201 433.86839588961715 1644.8334983478203 435.9583124977739Q1642.743581739664 438.0482291059306 1642.743581739664 438.58686740700193Q1642.743581739664 439.1470512401161 1643.2175834446066 439.1470512401161Q1643.6700396175065 439.1470512401161 1644.5318608992206 438.58686740700193Q1645.3936821809348 438.0482291059306 1659.2690048165318 428.9775601158895Q1673.1443274521293 419.90689112584835 1674.8679700155576 418.8942511198342Q1676.5700670469432 417.88161111382016 1678.5738015269285 417.88161111382016Q1680.5990815389564 417.88161111382016 1683.8524568774274 419.82070899767695Q1687.1058322158983 421.75980688153373 1687.1058322158983 425.0131822200045Q1687.1058322158983 428.2881030905182 1681.4609028206705 434.6440350431598Q1675.7944278934 440.99996699580146 1670.0417708379587 446.90344277554317Q1664.3106593145599 452.7853730232421 1664.3106593145599 455.2631092081702L1664.3106593145599 455.2631092081702Q1664.3106593145599 456.51275006665566 1666.012756345945 456.51275006665566Z " fill="#ffffff" transform="matrix(0.5186396365976954,0,0,0.5186396365976954,0,77.0347406301612)"/></g></svg>